<svg width="48" height="48" viewBox="0 0 48 48" fill="none" xmlns="http://www.w3.org/2000/svg" role="img" aria-label="FundSpace">
  <rect x="3" y="3" width="42" height="42" rx="11" fill="#0B4A3F"/>
  <path d="M13 19C13 16.791 14.791 15 17 15H32C34.209 15 36 16.791 36 19V33C36 35.209 34.209 37 32 37H17C14.791 37 13 35.209 13 33V19Z" fill="#F7FBF8"/>
  <path d="M16 20C16 18.895 16.895 18 18 18H31C32.105 18 33 18.895 33 20V22H16V20Z" fill="#21A67A"/>
  <path d="M16 22H36V32C36 34.761 33.761 37 31 37H18C16.895 37 16 36.105 16 35V22Z" fill="#16352F"/>
  <path d="M11 34L18 27L23 30L35 18" stroke="#4FB7E8" stroke-width="3.4" stroke-linecap="round" stroke-linejoin="round"/>
  <circle cx="31" cy="30" r="5.6" fill="#F0B84E"/>
  <path d="M31 26.5V33.5" stroke="#16352F" stroke-width="2" stroke-linecap="round"/>
</svg>
