<svg width="128" height="128" viewBox="0 0 128 128" fill="none" xmlns="http://www.w3.org/2000/svg" role="img" aria-labelledby="title desc">
  <title id="title">FundSpace Icon</title>
  <desc id="desc">Compact FundSpace app icon with wallet, savings coin, and growth line.</desc>
  <rect x="8" y="8" width="112" height="112" rx="28" fill="#0B4A3F"/>
  <path d="M34 50C34 43.373 39.373 38 46 38H86C92.627 38 98 43.373 98 50V86C98 92.627 92.627 98 86 98H46C39.373 98 34 92.627 34 86V50Z" fill="#F7FBF8"/>
  <path d="M42 50C42 47.791 43.791 46 46 46H84C87.314 46 90 48.686 90 52V56H42V50Z" fill="#21A67A"/>
  <path d="M42 56H98V84C98 91.732 91.732 98 84 98H46C43.791 98 42 96.209 42 94V56Z" fill="#16352F"/>
  <path d="M32 91L48 75L62 84L91 55" stroke="#4FB7E8" stroke-width="8" stroke-linecap="round" stroke-linejoin="round"/>
  <circle cx="82" cy="77" r="15" fill="#F0B84E"/>
  <path d="M82 67V87" stroke="#16352F" stroke-width="5" stroke-linecap="round"/>
</svg>
